<svg width="1050" height="153" viewBox="0 0 1050 153" fill="none" xmlns="http://www.w3.org/2000/svg">
<path d="M247.343 1.74942C243.567 11.4412 239.77 21.1248 236.02 30.8267C229.166 48.563 222.324 66.3043 215.496 84.0506C214.055 87.7826 213.606 88.0554 209.614 88.0553C205.859 88.0552 202.098 87.9238 198.352 88.1087C197.557 88.2113 196.751 88.017 196.09 87.5632C195.43 87.1094 194.962 86.4282 194.776 85.6511C192.621 80.1185 190.42 74.6038 188.29 69.0617C179.869 47.1426 171.46 25.2186 163.065 3.28965C162.67 2.2586 162.353 1.19774 161.898 -0.152614C162.941 -0.224792 163.644 -0.314243 164.347 -0.315662C170.046 -0.327147 175.748 -0.234049 181.444 -0.366389C182.335 -0.485285 183.239 -0.256134 183.964 0.273064C184.69 0.802261 185.182 1.59045 185.337 2.47253C191.463 20.8921 197.633 39.297 203.848 57.6873C204.034 58.3749 204.417 58.9941 204.949 59.4699C206.277 55.6009 207.619 51.7368 208.929 47.862C214.079 32.6329 219.217 17.3998 224.342 2.16264C224.869 0.592192 225.602 -0.361299 227.434 -0.340658C234.07 -0.265871 240.707 -0.275165 247.343 -0.252739V1.74942Z" fill="#00ADEF"/>
<path d="M109.267 18.1628C107.977 18.1628 106.927 18.1628 105.877 18.1628C100.047 18.1629 94.2158 18.1622 88.385 18.1605C85.562 18.1564 85.2571 17.8466 85.2555 15.0845C85.2529 10.7484 85.2918 6.41174 85.2359 2.07632C85.2143 0.395826 85.8345 -0.3408 87.5859 -0.338496C109.166 -0.310401 130.747 -0.308134 152.327 -0.331695C154.061 -0.333152 154.694 0.443058 154.672 2.11984C154.615 6.45525 154.673 10.792 154.644 15.128C154.628 17.6823 154.121 18.1578 151.565 18.1606C145.266 18.1674 138.964 18.2288 132.667 18.1208C130.868 18.09 130.427 18.6321 130.431 20.3778C130.49 41.7248 130.502 63.0719 130.469 84.4191C130.469 87.7615 130.176 88.0539 126.809 88.0553C122.051 88.0573 117.292 88.0567 112.534 88.0534C109.691 88.0477 109.269 87.6275 109.268 84.8195C109.265 63.5391 109.265 42.2587 109.267 20.9783V18.1628Z" fill="#00ADEF"/>
<path d="M19.2402 95.0907C20.4948 94.7822 21.7539 94.4911 23.0031 94.1625C30.3692 92.3333 37.2557 88.9534 43.1983 84.2507C50.0282 78.6962 55.1612 71.3509 58.017 63.0449C59.6805 58.2009 60.8146 53.1924 61.3996 48.1064C61.7264 44.55 61.5308 40.9652 60.819 37.4649C59.9908 32.0765 58.4037 26.8312 56.1044 21.8838C51.09 11.0613 42.1125 2.55346 31.0067 -1.90091C27.3028 -3.44738 23.4546 -4.62663 19.5182 -5.42157C19.4227 -5.44945 19.3297 -5.48528 19.2402 -5.52869H39.4161C39.4652 -5.48818 39.5208 -5.4563 39.5806 -5.43442C41.4731 -5.11817 43.3738 -4.84397 45.257 -4.4802C46.5785 -4.2504 47.8815 -3.92515 49.1555 -3.50702C51.131 -2.81631 53.0735 -2.02222 54.9946 -1.19097C56.3396 -0.607979 57.6511 0.0487156 58.9231 0.776092C60.5665 1.71493 62.1863 2.70406 63.7517 3.7658C64.929 4.57919 66.0561 5.46246 67.1267 6.4108C68.2735 7.4098 69.3637 8.47708 70.4319 9.56023C71.2283 10.3677 71.9681 11.2328 72.7009 12.0993C73.705 13.2864 74.7179 14.4697 75.6522 15.7105C76.3319 16.6331 76.9548 17.5959 77.5176 18.5935C78.2758 19.9063 79.0057 21.2386 79.6728 22.5989C80.3122 23.903 80.8799 25.2438 81.4335 26.587C81.8363 27.5644 82.2043 28.5599 82.5165 29.5691C82.8889 30.7733 83.228 31.9912 83.5031 33.2206C83.8181 34.6276 84.075 36.0493 84.3038 37.4732C84.4706 38.5117 84.5445 39.5648 84.6737 40.6097C84.7136 40.9333 84.7992 41.2513 84.8639 41.5718V47.5759C84.8308 47.6115 84.772 47.6445 84.7682 47.6829C84.658 48.8045 84.5682 49.9283 84.443 51.0481C84.3629 51.9337 84.2384 52.8147 84.0698 53.6879C83.6991 55.4095 83.3357 57.1386 82.8343 58.8249C82.3465 60.4653 81.7059 62.062 81.1009 63.6662C80.7762 64.527 80.4209 65.3806 80.0145 66.2057C79.5629 67.1227 79.0457 68.0084 78.5417 68.8991C77.9725 69.9051 77.3984 70.9088 76.8027 71.8994C76.4631 72.4642 76.0874 73.0086 75.708 73.5482C75.2119 74.2539 74.712 74.9581 74.1833 75.6395C73.8208 76.1069 73.4061 76.5343 73.015 76.9798C72.3186 77.7732 71.6573 78.6009 70.9172 79.3517C69.9939 80.288 69.025 81.1825 68.0403 82.0553C67.0321 82.9488 66.0045 83.8241 64.9415 84.6515C64.0594 85.3382 63.1148 85.9455 62.1956 86.5846C61.6307 86.9773 61.0812 87.3971 60.4896 87.7453C59.4984 88.3287 58.4845 88.8747 57.47 89.4175C56.5592 89.9047 55.6609 90.429 54.7101 90.8251C53.25 91.4332 51.766 91.9955 50.2617 92.4841C48.7603 92.9717 47.2252 93.3591 45.6979 93.7645C43.4458 94.3135 41.1545 94.6893 38.8445 94.8885C38.443 94.9315 38.0467 95.022 37.6481 95.0905L19.2402 95.0907Z" fill="#00ADEF"/>
<path d="M35.3998 61.2438C32.0988 61.2445 28.8723 60.2676 26.1308 58.4374C23.3893 56.6073 21.2568 54.0066 20.0048 50.9664C18.7527 47.9263 18.4377 44.5841 19.0998 41.3651C19.7619 38.1462 21.3711 35.1961 23.7228 32.8904C26.0744 30.5846 29.0621 29.0274 32.3056 28.4169C35.5491 27.8064 38.9018 28.1702 41.9369 29.4621C44.972 30.754 47.5523 32.9155 49.3495 35.6715C51.1467 38.4276 52.0795 41.6535 52.0291 44.9388C51.9647 49.2861 50.1843 53.4335 47.0725 56.4845C43.9608 59.5356 39.7677 61.2452 35.3998 61.2438Z" fill="#00ADEF"/>
<path d="M0 91.9851C0.664663 90.478 1.28707 88.9504 2.00847 87.4706C2.51134 86.4391 3.1318 85.4622 3.73337 84.4813C4.26076 83.6213 4.79662 82.7614 5.39889 81.9533C6.03282 81.0959 6.71656 80.2761 7.44661 79.4981C8.34986 78.5435 9.29037 77.6169 10.2791 76.7509C11.6493 75.5861 13.1562 74.5908 14.7669 73.7867C16.1528 73.099 17.6108 72.5658 19.1143 72.197C20.0207 71.9572 20.9459 71.7948 21.88 71.7116C23.0192 71.6093 24.1689 71.6103 25.3145 71.5941C27.4889 71.5634 29.6635 71.553 31.838 71.5329C33.2054 71.5204 34.577 71.57 35.939 71.4778C38.4 71.343 40.8277 70.8491 43.1443 70.0117C44.7959 69.4071 46.3889 68.6547 47.904 67.7638C50.2547 66.3829 52.3654 64.6327 54.1546 62.581C55.0769 61.5429 55.9294 60.4454 56.7066 59.2956C57.9268 57.4386 58.9012 55.4326 59.6056 53.3274C59.591 53.5714 59.5912 53.7058 59.5728 53.8376C59.5538 53.9736 59.515 54.1068 59.4877 54.2418C58.1175 61.674 55.1517 68.7242 50.7928 74.9107C45.6708 81.9319 38.6712 87.3805 30.5908 90.6363C25.6335 92.695 20.4247 94.0926 15.0995 94.7929C14.4332 94.8839 13.7691 94.991 13.1039 95.0907H2.80798C2.21932 94.9632 1.66458 94.7127 1.1805 94.3558C0.696414 93.9989 0.294033 93.5437 0 93.0203V91.9851Z" fill="url(#paint0_linear)"/>
<path d="M13.1039 -5.52893C14.2659 -5.35715 15.4305 -5.20168 16.5893 -5.01102C25.9614 -3.6832 34.8273 0.0410303 42.3214 5.79803C49.2227 11.2725 54.3789 18.6235 57.164 26.9586C58.0955 29.6353 58.7061 32.4226 59.4613 35.16C59.4753 35.2667 59.4813 35.3743 59.4791 35.4818C58.9744 34.3846 58.5575 33.376 58.054 32.4124C57.5797 31.4803 57.0439 30.5806 56.4501 29.719C55.7291 28.6544 54.928 27.6457 54.0537 26.7017C52.9329 25.5368 51.7364 24.4464 50.472 23.4376C49.3665 22.567 48.1926 21.7861 46.9617 21.1024C45.8427 20.4991 44.6821 19.9756 43.4886 19.536C42.4294 19.1196 41.3427 18.7759 40.2362 18.5074C38.1976 18.0214 36.109 17.7738 34.0128 17.7697C30.6339 17.7661 27.2546 17.7442 23.876 17.776C21.1343 17.803 18.4198 17.2329 15.9228 16.1058C14.4481 15.4037 13.0339 14.5824 11.6943 13.6499C9.63303 12.2564 7.82022 10.5299 6.3308 8.54153C5.26737 7.22323 4.29286 5.83623 3.41369 4.38966C2.35789 2.54699 1.50897 0.586689 0.572876 -1.32389C0.377456 -1.72277 0.190738 -2.12579 0 -2.52686V-3.56209C0.137174 -3.84748 0.312791 -4.11292 0.522001 -4.35109C1.01174 -4.77739 1.55731 -5.14018 2.08 -5.52893H13.1039Z" fill="url(#paint1_linear)"/>
<path d="M274.656 87.8326C272.312 87.8326 270.413 87.1456 268.958 85.7717C267.584 84.317 266.897 82.3774 266.897 79.9529V9.03528C266.897 6.69156 267.544 4.87317 268.837 3.58008C270.211 2.287 272.07 1.64046 274.413 1.64046H304.235C313.368 1.64046 320.479 3.94376 325.571 8.55038C330.663 13.0762 333.208 19.4608 333.208 27.7042C333.208 35.9476 330.663 42.3726 325.571 46.9792C320.479 51.5858 313.368 53.8891 304.235 53.8891H282.536V79.9529C282.536 82.3774 281.808 84.317 280.353 85.7717C278.98 87.1456 277.08 87.8326 274.656 87.8326ZM302.295 41.8877C313.044 41.8877 318.419 37.2003 318.419 27.8254C318.419 18.4505 313.044 13.7631 302.295 13.7631H282.536V41.8877H302.295ZM383.807 88.1963C375.483 88.1963 368.25 86.4183 362.108 82.8623C356.046 79.3063 351.359 74.2148 348.045 67.5877C344.732 60.9607 343.075 53.2022 343.075 44.3122C343.075 35.4223 344.691 27.7042 347.924 21.1579C351.238 14.5309 355.965 9.43937 362.108 5.88339C368.25 2.32741 375.483 0.549415 383.807 0.549415C392.131 0.549415 399.324 2.32741 405.385 5.88339C411.528 9.43937 416.215 14.5309 419.448 21.1579C422.761 27.7042 424.418 35.4223 424.418 44.3122C424.418 53.2022 422.761 60.9607 419.448 67.5877C416.134 74.2148 411.406 79.3063 405.264 82.8623C399.203 86.4183 392.051 88.1963 383.807 88.1963ZM383.807 75.7099C391.646 75.7099 397.748 73.0025 402.112 67.5877C406.557 62.1729 408.78 54.4144 408.78 44.3122C408.78 34.21 406.557 26.4919 402.112 21.1579C397.748 15.7432 391.646 13.0358 383.807 13.0358C375.887 13.0358 369.704 15.7432 365.259 21.1579C360.895 26.4919 358.713 34.21 358.713 44.3122C358.713 54.4144 360.895 62.1729 365.259 67.5877C369.704 73.0025 375.887 75.7099 383.807 75.7099ZM469.793 88.1963C463.57 88.1963 457.67 87.3881 452.094 85.7717C446.598 84.0746 442.113 81.8117 438.638 78.983C436.779 77.6091 435.849 75.6695 435.849 73.1642C435.849 71.467 436.334 70.0123 437.304 68.8C438.355 67.5069 439.567 66.8604 440.941 66.8604C442.396 66.8604 444.052 67.4261 445.911 68.5576C449.386 71.0629 453.023 72.8813 456.822 74.0127C460.62 75.1442 464.822 75.7099 469.429 75.7099C475.329 75.7099 479.855 74.6997 483.006 72.6793C486.158 70.578 487.734 67.5473 487.734 63.5873C487.734 60.5162 486.239 58.1725 483.249 56.5561C480.339 54.8589 475.45 53.2426 468.581 51.707C461.469 50.1715 455.69 48.3935 451.245 46.3731C446.8 44.3526 443.446 41.7665 441.183 38.6146C438.92 35.4627 437.789 31.4622 437.789 26.6131C437.789 21.6024 439.203 17.1171 442.032 13.157C444.861 9.19692 448.78 6.12584 453.791 3.94376C458.882 1.68086 464.58 0.549415 470.884 0.549415C482.441 0.549415 491.856 3.62049 499.13 9.76264C500.18 10.6516 500.908 11.5406 501.312 12.4296C501.797 13.2378 502.039 14.2884 502.039 15.5815C502.039 17.2787 501.514 18.7738 500.463 20.0669C499.493 21.2792 498.321 21.8853 496.948 21.8853C496.139 21.8853 495.372 21.7641 494.644 21.5216C493.998 21.2792 493.109 20.8347 491.977 20.1881C488.664 17.7636 485.431 15.9856 482.279 14.8542C479.208 13.6419 475.41 13.0358 470.884 13.0358C465.388 13.0358 461.024 14.1672 457.791 16.4301C454.639 18.6122 453.064 21.6833 453.064 25.6433C453.064 28.9569 454.478 31.5026 457.306 33.2806C460.135 35.0586 464.944 36.7154 471.732 38.2509C478.925 39.8673 484.744 41.6857 489.189 43.7061C493.715 45.6457 497.15 48.1511 499.493 51.2221C501.918 54.2932 503.13 58.1321 503.13 62.7387C503.13 67.7494 501.716 72.1943 498.887 76.0736C496.139 79.872 492.22 82.8623 487.128 85.0444C482.117 87.1456 476.339 88.1963 469.793 88.1963ZM543.747 87.7114C541.322 87.7114 539.383 87.0244 537.928 85.6505C536.554 84.1958 535.867 82.2966 535.867 79.9529V14.4905H513.804C508.955 14.4905 506.53 12.3488 506.53 8.06547C506.53 3.78213 508.955 1.64046 513.804 1.64046H573.568C578.418 1.64046 580.842 3.78213 580.842 8.06547C580.842 12.3488 578.418 14.4905 573.568 14.4905H551.505V79.9529C551.505 82.2966 550.778 84.1958 549.323 85.6505C547.949 87.0244 546.09 87.7114 543.747 87.7114ZM642.702 42.9787C647.632 44.3526 651.43 46.858 654.097 50.4948C656.845 54.1316 658.219 58.5766 658.219 63.8297C658.219 71.1033 655.592 76.801 650.339 80.9227C645.167 85.0444 638.014 87.1052 628.882 87.1052H597.605C595.262 87.1052 593.403 86.4587 592.029 85.1656C590.736 83.8725 590.089 82.0541 590.089 79.7104V9.03528C590.089 6.69156 590.736 4.87317 592.029 3.58008C593.403 2.287 595.262 1.64046 597.605 1.64046H627.67C636.56 1.64046 643.51 3.62049 648.521 7.58056C653.612 11.4598 656.158 16.915 656.158 23.9462C656.158 28.4719 654.946 32.3916 652.521 35.7051C650.177 39.0187 646.904 41.4432 642.702 42.9787ZM605.364 37.6448H625.124C635.873 37.6448 641.247 33.6443 641.247 25.6433C641.247 21.6024 639.913 18.6122 637.247 16.6726C634.58 14.7329 630.539 13.7631 625.124 13.7631H605.364V37.6448ZM627.185 74.9826C632.842 74.9826 636.964 73.9723 639.55 71.9519C642.136 69.9315 643.429 66.7796 643.429 62.4962C643.429 58.2129 642.096 55.0206 639.429 52.9193C636.842 50.8181 632.761 49.7674 627.185 49.7674H605.364V74.9826H627.185ZM680.599 87.8326C678.256 87.8326 676.356 87.1052 674.902 85.6505C673.528 84.1958 672.841 82.2966 672.841 79.9529V8.79283C672.841 6.44911 673.528 4.59031 674.902 3.2164C676.356 1.76168 678.256 1.03432 680.599 1.03432C683.024 1.03432 684.923 1.76168 686.297 3.2164C687.752 4.59031 688.479 6.44911 688.479 8.79283V79.9529C688.479 82.2966 687.752 84.1958 686.297 85.6505C684.923 87.1052 683.024 87.8326 680.599 87.8326ZM714.331 87.1052C711.987 87.1052 710.168 86.4587 708.875 85.1656C707.582 83.8725 706.936 82.0945 706.936 79.8316V8.79283C706.936 6.44911 707.623 4.59031 708.997 3.2164C710.451 1.76168 712.35 1.03432 714.694 1.03432C717.119 1.03432 719.018 1.76168 720.392 3.2164C721.847 4.59031 722.574 6.44911 722.574 8.79283V74.2552H756.639C761.488 74.2552 763.912 76.3969 763.912 80.6802C763.912 84.9636 761.488 87.1052 756.639 87.1052H714.331ZM781.573 87.1052C779.23 87.1052 777.411 86.4587 776.118 85.1656C774.825 83.8725 774.179 82.0945 774.179 79.8316V8.79283C774.179 6.44911 774.866 4.59031 776.239 3.2164C777.694 1.76168 779.593 1.03432 781.937 1.03432C784.362 1.03432 786.261 1.76168 787.635 3.2164C789.089 4.59031 789.817 6.44911 789.817 8.79283V74.2552H823.882C828.731 74.2552 831.155 76.3969 831.155 80.6802C831.155 84.9636 828.731 87.1052 823.882 87.1052H781.573ZM849.18 87.8326C846.836 87.8326 844.937 87.1052 843.482 85.6505C842.108 84.1958 841.421 82.2966 841.421 79.9529V8.79283C841.421 6.44911 842.108 4.59031 843.482 3.2164C844.937 1.76168 846.836 1.03432 849.18 1.03432C851.605 1.03432 853.504 1.76168 854.878 3.2164C856.332 4.59031 857.06 6.44911 857.06 8.79283V79.9529C857.06 82.2966 856.332 84.1958 854.878 85.6505C853.504 87.1052 851.605 87.8326 849.18 87.8326ZM940.251 1.03432C942.514 1.03432 944.292 1.76168 945.585 3.2164C946.959 4.59031 947.646 6.44911 947.646 8.79283V79.9529C947.646 82.2966 946.959 84.1958 945.585 85.6505C944.212 87.1052 942.434 87.8326 940.251 87.8326C937.665 87.8326 935.685 86.9032 934.311 85.0444L890.064 27.4617V79.9529C890.064 82.2966 889.417 84.1958 888.124 85.6505C886.831 87.1052 885.053 87.8326 882.79 87.8326C880.527 87.8326 878.749 87.1052 877.456 85.6505C876.163 84.1958 875.516 82.2966 875.516 79.9529V8.79283C875.516 6.44911 876.203 4.59031 877.577 3.2164C878.951 1.76168 880.77 1.03432 883.032 1.03432C885.538 1.03432 887.477 1.96373 888.851 3.82254L932.978 61.1627V8.79283C932.978 6.44911 933.624 4.59031 934.917 3.2164C936.291 1.76168 938.069 1.03432 940.251 1.03432ZM1031.18 40.9179C1033.04 40.9179 1034.53 41.4836 1035.67 42.6151C1036.8 43.6657 1037.36 45.08 1037.36 46.858V72.9217C1037.36 76.6393 1036.88 79.2659 1035.91 80.8014C1034.94 82.337 1032.96 83.5897 1029.97 84.5595C1026.73 85.6909 1022.98 86.5799 1018.69 87.2265C1014.41 87.873 1010.29 88.1963 1006.33 88.1963C997.519 88.1963 989.882 86.4587 983.417 82.9835C976.951 79.5084 971.981 74.4977 968.506 67.9514C965.111 61.3244 963.414 53.4446 963.414 44.3122C963.414 35.3415 965.111 27.583 968.506 21.0367C971.981 14.4097 976.87 9.35855 983.174 5.88339C989.478 2.32741 996.913 0.549415 1005.48 0.549415C1016.88 0.549415 1026.21 3.62049 1033.48 9.76264C1034.45 10.6516 1035.14 11.5406 1035.54 12.4296C1036.03 13.3186 1036.27 14.3693 1036.27 15.5815C1036.27 17.3595 1035.79 18.8546 1034.82 20.0669C1033.85 21.2792 1032.68 21.8853 1031.3 21.8853C1030.41 21.8853 1029.6 21.7641 1028.88 21.5216C1028.15 21.1984 1027.3 20.7134 1026.33 20.0669C1022.77 17.5616 1019.46 15.824 1016.39 14.8542C1013.32 13.8035 1009.84 13.2782 1005.96 13.2782C997.156 13.2782 990.488 15.9048 985.962 21.1579C981.517 26.3303 979.295 34.0484 979.295 44.3122C979.295 65.3248 988.508 75.8311 1006.93 75.8311C1012.43 75.8311 1017.93 75.0634 1023.42 73.5278V52.0707H1009.72C1007.78 52.0707 1006.25 51.5858 1005.12 50.616C1004.07 49.6462 1003.54 48.2723 1003.54 46.4943C1003.54 44.7163 1004.07 43.3424 1005.12 42.3726C1006.25 41.4028 1007.78 40.9179 1009.72 40.9179H1031.18Z" fill="#484848"/>
<path d="M836.46 152.236C835.922 152.236 835.479 152.082 835.133 151.774C834.825 151.428 834.671 150.967 834.671 150.39V113.06C834.671 112.56 834.845 112.137 835.191 111.791C835.575 111.445 836.037 111.272 836.575 111.272H850.076C854.307 111.272 857.577 112.291 859.884 114.33C862.231 116.368 863.404 119.253 863.404 122.984C863.404 126.754 862.231 129.677 859.884 131.754C857.538 133.792 854.269 134.812 850.076 134.812H838.249V150.39C838.249 150.967 838.075 151.428 837.729 151.774C837.422 152.082 836.999 152.236 836.46 152.236ZM849.845 131.754C856.5 131.754 859.827 128.831 859.827 122.984C859.827 117.215 856.5 114.33 849.845 114.33H838.249V131.754H849.845ZM887.459 152.409C883.766 152.409 880.555 151.582 877.824 149.928C875.093 148.236 872.997 145.832 871.535 142.716C870.073 139.562 869.343 135.87 869.343 131.638C869.343 127.369 870.073 123.676 871.535 120.561C872.997 117.407 875.074 115.003 877.766 113.349C880.497 111.657 883.728 110.81 887.459 110.81C891.19 110.81 894.421 111.657 897.152 113.349C899.883 115.003 901.979 117.388 903.441 120.503C904.902 123.619 905.633 127.311 905.633 131.581C905.633 135.85 904.902 139.562 903.441 142.716C901.979 145.832 899.883 148.236 897.152 149.928C894.421 151.582 891.19 152.409 887.459 152.409ZM887.459 149.236C892.036 149.236 895.594 147.697 898.133 144.62C900.671 141.543 901.941 137.197 901.941 131.581C901.941 125.965 900.671 121.638 898.133 118.599C895.633 115.522 892.075 113.984 887.459 113.984C882.882 113.984 879.324 115.522 876.785 118.599C874.285 121.676 873.035 126.004 873.035 131.581C873.035 137.158 874.285 141.504 876.785 144.62C879.324 147.697 882.882 149.236 887.459 149.236ZM944.972 149.813C945.203 150.159 945.318 150.486 945.318 150.793C945.318 151.217 945.145 151.582 944.799 151.89C944.491 152.159 944.126 152.294 943.703 152.294C943.049 152.294 942.53 151.986 942.145 151.37L934.356 138.908C933.241 137.139 932.087 135.927 930.894 135.273C929.74 134.619 928.125 134.292 926.048 134.292H918.144V150.39C918.144 150.967 917.971 151.428 917.624 151.774C917.317 152.082 916.894 152.236 916.355 152.236C915.817 152.236 915.374 152.082 915.028 151.774C914.72 151.428 914.566 150.967 914.566 150.39V113.06C914.566 112.56 914.74 112.137 915.086 111.791C915.47 111.445 915.932 111.272 916.47 111.272H930.837C935.106 111.272 938.395 112.253 940.703 114.214C943.01 116.138 944.164 118.965 944.164 122.696C944.164 125.965 943.184 128.561 941.222 130.485C939.26 132.408 936.491 133.523 932.914 133.831C933.837 134.139 934.683 134.658 935.452 135.389C936.222 136.081 937.01 137.062 937.818 138.331L944.972 149.813ZM930.606 131.235C937.299 131.235 940.645 128.369 940.645 122.638C940.645 119.83 939.818 117.753 938.164 116.407C936.51 115.022 933.991 114.33 930.606 114.33H918.086V131.235H930.606ZM964.537 152.236C963.999 152.236 963.576 152.063 963.268 151.717C962.96 151.37 962.806 150.928 962.806 150.39V114.387H949.479C948.979 114.387 948.575 114.253 948.267 113.984C947.998 113.714 947.863 113.33 947.863 112.83C947.863 112.33 947.998 111.945 948.267 111.676C948.575 111.407 948.979 111.272 949.479 111.272H979.596C980.057 111.272 980.442 111.426 980.75 111.733C981.057 112.003 981.211 112.368 981.211 112.83C981.211 113.291 981.057 113.676 980.75 113.984C980.442 114.253 980.057 114.387 979.596 114.387H966.326V150.39C966.326 150.928 966.153 151.37 965.807 151.717C965.499 152.063 965.076 152.236 964.537 152.236ZM1016.39 150.043C1016.51 150.274 1016.57 150.505 1016.57 150.736C1016.57 151.159 1016.39 151.524 1016.05 151.832C1015.7 152.101 1015.3 152.236 1014.84 152.236C1014.53 152.236 1014.22 152.14 1013.91 151.947C1013.64 151.755 1013.43 151.486 1013.28 151.14L1008.89 141.101H986.507L982.065 151.14C981.718 151.87 981.18 152.236 980.449 152.236C979.988 152.236 979.584 152.101 979.238 151.832C978.93 151.524 978.776 151.14 978.776 150.678C978.776 150.409 978.814 150.197 978.891 150.043L995.738 112.195C996.085 111.349 996.719 110.926 997.642 110.926C998.066 110.926 998.45 111.041 998.796 111.272C999.181 111.503 999.45 111.81 999.604 112.195L1016.39 150.043ZM987.834 137.985H1007.51L997.7 115.657L987.834 137.985ZM1025.49 151.947C1024.99 151.947 1024.55 151.794 1024.17 151.486C1023.82 151.178 1023.65 150.793 1023.65 150.332V112.83C1023.65 112.291 1023.8 111.849 1024.11 111.503C1024.46 111.157 1024.9 110.983 1025.44 110.983C1026.01 110.983 1026.46 111.157 1026.76 111.503C1027.07 111.81 1027.22 112.253 1027.22 112.83V148.832H1046.96C1047.46 148.832 1047.84 148.966 1048.11 149.236C1048.42 149.505 1048.57 149.89 1048.57 150.39C1048.57 150.89 1048.42 151.274 1048.11 151.544C1047.84 151.813 1047.46 151.947 1046.96 151.947H1025.49Z" fill="#484848"/>
<defs>
<linearGradient id="paint0_linear" x1="70.7368" y1="74.209" x2="-71.4215" y2="74.209" gradientUnits="userSpaceOnUse">
<stop offset="0.11892" stop-color="#0885C5"/>
<stop offset="0.55135" stop-color="#00ADEF"/>
</linearGradient>
<linearGradient id="paint1_linear" x1="3297.52" y1="658.572" x2="-3348.94" y2="658.572" gradientUnits="userSpaceOnUse">
<stop offset="0.11892" stop-color="#0885C5"/>
<stop offset="0.55135" stop-color="#00ADEF"/>
</linearGradient>
</defs>
</svg>
